# xmcd CD database file
#
# Track frame offsets:
#	151
#	5399
#	12980
#	19441
#	23751
#	29851
#	43227
#	52760
#	59427
#	65477
#	71577
#	75908
#	80586
#	89636
#	92747
#	106497
#	116098
#	123021
#	128907
#	135570
#	143291
#	149698
#	156823
#	169475
#	174764
#	184065
#	189549
#	202597
#	229491
#
# Disc length: 3477 seconds
#
# Revision: 0
# Processed by: cddbd v1.5.1PL0 Copyright (c) Steve Scherf et al.
# Submitted via: CDex 1.51
#
DISCID=900d931d
DTITLE=Various Artist - Roots of Jazz - disc 2
DYEAR=1900
DGENRE=Jazz
TTITLE0=Akosua Tuntum: Ghana 1
TTITLE1=Akosua Tuntum: Ghana 2
TTITLE2=Senegal
TTITLE3=Guinea Children's song
TTITLE4=Kenya (My Spade)
TTITLE5=Eleguara
TTITLE6=Brazilian Bateria
TTITLE7=Stewball
TTITLE8=The Grey Goose
TTITLE9=Sally Died - Ronald McDonald
TTITLE10=Hammer Ring
TTITLE11=See Aunt Dinah
TTITLE12=Hambone
TTITLE13=Sermon by Rev JM Gates
TTITLE14=Sermon by Rev Audrey Bronson
TTITLE15=I'm Saved
TTITLE16=Diminuendo and Crescendo in Blue
TTITLE17=Tenor Madness
TTITLE18=Pearlee Blues
TTITLE19=St. Louis Blues
TTITLE20=Soup Soup
TTITLE21=Stompin' at the Savoy
TTITLE22=So What
TTITLE23=Hotter Than That
TTITLE24=Jumpin' at the Woodside
TTITLE25=Sometimes I'm Happy
TTITLE26=Wrap Your Troubles in Dreams - Trading 8s
TTITLE27=Tenor Madness 2
TTITLE28=What Love
EXTD=
EXTT0=
EXTT1=
EXTT2=
EXTT3=
EXTT4=
EXTT5=
EXTT6=
EXTT7=
EXTT8=
EXTT9=
EXTT10=
EXTT11=
EXTT12=
EXTT13=
EXTT14=
EXTT15=
EXTT16=
EXTT17=
EXTT18=
EXTT19=
EXTT20=
EXTT21=
EXTT22=
EXTT23=
EXTT24=
EXTT25=
EXTT26=
EXTT27=
EXTT28=
PLAYORDER=
